<svg width="72" height="29" viewBox="0 0 72 29" fill="none" xmlns="http://www.w3.org/2000/svg">
<path fill-rule="evenodd" clip-rule="evenodd" d="M6 22.3008L11 18.4414L16 23.2656L21 15.5469L26 19.4062H31L36 10.7227L41 7.82812L46 10.7227L51 1.07422L56 10.7227L61 8.79297L66 3.96875L72 7.82812V28.0898H0V20.3711L6 22.3008Z" fill="url(#paint0_linear_9_2147)"/>
<path fill-rule="evenodd" clip-rule="evenodd" d="M1 20.3711L6 22.3008L11 18.4414L16 22.3008L21 15.5469L26 19.4062H31L36 10.7227L41 7.82812L46 10.7227L51 1.07422L56 10.7227L61 8.79297L66 3.96875L71 7.82812" fill="url(#paint1_linear_9_2147)"/>
<path d="M1 20.3711L6 22.3008L11 18.4414L16 22.3008L21 15.5469L26 19.4062H31L36 10.7227L41 7.82812L46 10.7227L51 1.07422L56 10.7227L61 8.79297L66 3.96875L71 7.82812" stroke="#D41216" stroke-width="1.5" stroke-linecap="round" stroke-linejoin="round"/>
<defs>
<linearGradient id="paint0_linear_9_2147" x1="-15" y1="-10.1823" x2="-15" y2="28.0898" gradientUnits="userSpaceOnUse">
<stop stop-color="#D41216"/>
<stop offset="1" stop-color="white" stop-opacity="0.01"/>
</linearGradient>
<linearGradient id="paint1_linear_9_2147" x1="-13.5833" y1="-7.77018" x2="-13.5833" y2="22.3008" gradientUnits="userSpaceOnUse">
<stop stop-color="#D41216"/>
<stop offset="1" stop-color="white" stop-opacity="0.01"/>
</linearGradient>
</defs>
</svg>
