<svg width="117" height="109" viewBox="0 0 117 109" fill="none" xmlns="http://www.w3.org/2000/svg">
<g filter="url(#filter0_d_5_6587)">
<path d="M29.8065 87.4776C34.721 87.4776 39.4742 87.4776 44.4782 87.4776C44.4782 84.4984 44.4603 81.6134 44.4827 78.7283C44.5051 75.7402 44.4603 72.779 43.6539 69.8491C42.5967 66.0322 40.8809 62.623 38.0675 59.8051C34.273 56.0062 30.483 52.1937 26.6302 48.4485C25.9045 47.7407 24.9413 47.2031 23.9916 46.8313C23.4629 46.6252 22.5401 46.7148 22.1593 47.0642C21.8278 47.3734 21.7606 48.3589 22.0025 48.8293C23.4988 51.7368 25.0443 54.6263 26.7064 57.4397C27.9205 59.4915 29.363 61.4045 30.6622 63.407C31.2625 64.3298 31.2983 65.3154 30.25 65.9292C29.3854 66.4354 28.4625 66.2607 27.8981 65.3602C25.0488 60.8176 22.2086 56.266 19.4221 51.683C18.9696 50.9394 18.7232 50.0299 18.5395 49.1608C17.6659 44.9945 20.9587 42.0647 24.9547 43.5475C26.3928 44.0806 27.8577 44.878 28.9464 45.9353C33.3949 50.245 37.9062 54.5188 42.0008 59.1511C46.0955 63.7788 47.7396 69.531 47.8964 75.6775C47.977 78.8134 47.9278 81.9494 47.9367 85.0898C47.9367 85.8245 47.9367 86.5592 47.9367 87.1864C49.2852 87.7105 50.5396 88.0017 51.5834 88.6423C53.5501 89.8564 54.5849 91.8096 54.6924 94.0675C54.8358 97.1855 54.7283 100.321 54.7283 103.632C42.861 103.632 31.137 103.632 19.3235 103.632C19.3235 100.035 19.1398 96.536 19.3817 93.064C19.5744 90.3268 21.8681 88.2078 24.6008 87.6254C25.0219 87.5358 25.461 87.5179 25.9403 87.4641C26.4914 85.4168 25.9627 83.6293 24.8696 82.0927C23.0642 79.5436 21.1603 77.0483 19.1443 74.6605C17.2179 72.3802 15.1258 70.2433 13.0606 68.0885C6.90964 61.6822 3.91258 53.9544 4.0873 45.1648C4.24857 36.8904 4.87128 28.6204 5.39095 20.3595C5.57463 17.3893 5.93302 14.4191 6.42581 11.4848C6.68117 9.97054 7.25012 8.45185 7.96242 7.08547C9.22576 4.66184 11.2462 3.69866 13.6878 4.16457C16.08 4.62152 17.1552 6.44484 17.5763 8.5728C18.0378 10.9068 18.199 13.3036 18.4499 15.6735C19.1891 22.6442 19.9059 29.615 20.6227 36.5857C20.6988 37.3294 20.7078 38.0775 20.7615 38.8212C20.8377 39.9098 20.2732 40.5773 19.2608 40.6848C18.217 40.7968 17.5898 40.1607 17.4598 39.1214C17.2135 37.1233 16.9671 35.1253 16.761 33.1227C15.9815 25.48 15.2199 17.8373 14.4404 10.1945C14.3239 9.05664 14.1268 7.7261 12.8635 7.5021C11.5732 7.27363 10.8565 8.47425 10.5473 9.54047C9.96495 11.534 9.36912 13.5679 9.18096 15.6242C8.58961 22.1649 8.16402 28.719 7.71603 35.2686C7.53235 37.9476 7.38452 40.6311 7.33524 43.3146C7.165 52.4715 10.0635 60.4054 16.6042 66.9864C19.7043 70.1045 22.5938 73.442 25.4296 76.8064C27.2529 78.9702 28.8523 81.349 29.3764 84.2386C29.5556 85.251 29.6497 86.2814 29.8065 87.4776ZM22.5446 100.326C32.2391 100.326 41.6693 100.326 51.216 100.326C51.216 98.1532 51.2967 96.1372 51.1936 94.1347C51.0906 92.1949 49.9572 91.0839 48.0353 91.0705C40.7196 91.0167 33.4039 91.0077 26.0882 91.0391C23.8706 91.0481 22.6655 92.2621 22.558 94.511C22.4729 96.3657 22.5446 98.2338 22.5446 100.326Z" fill="white" fill-opacity="0.56"/>
<path d="M96.9073 103.699C84.9415 103.699 73.3251 103.699 61.5384 103.699C61.5384 100.088 61.3368 96.5847 61.6011 93.1217C61.8341 90.0709 64.186 88.1983 68.2135 87.3919C68.2135 86.59 68.1911 85.7209 68.218 84.8518C68.3479 80.3808 68.1866 75.874 68.7018 71.4479C69.3379 65.9869 71.775 61.2247 75.7397 57.3048C79.5073 53.582 83.1585 49.7382 87.0067 46.1005C88.2118 44.9581 89.8246 44.1607 91.3791 43.4932C93.2472 42.6913 95.0571 43.1751 96.5265 44.5997C97.9108 45.9437 98.0094 47.5654 97.5166 49.3574C96.4683 53.1743 94.2194 56.3461 92.1362 59.6075C90.9714 61.4308 89.7081 63.1869 88.4806 64.9699C87.7056 66.0899 86.7603 66.4438 85.8912 65.951C85.0445 65.4717 84.8564 64.3786 85.6045 63.2004C86.9978 60.9962 88.5389 58.8817 89.9231 56.6686C91.191 54.6482 92.3692 52.574 93.5116 50.4819C93.8968 49.7785 94.1343 48.9632 94.2821 48.1658C94.4747 47.1399 93.8968 46.5127 92.8889 46.7008C92.0422 46.8621 91.1058 47.1712 90.4697 47.7178C84.9863 52.4486 79.7134 57.4257 75.3679 63.2362C73.1055 66.2646 71.9676 69.9113 71.8153 73.6923C71.6316 78.2215 71.7705 82.7642 71.7705 87.4322C76.6895 87.4322 81.4964 87.4322 86.4691 87.4322C86.2765 80.9184 90.5951 76.8014 94.3672 72.42C97.1403 69.199 100.124 66.1571 102.87 62.9136C106.575 58.5323 108.112 53.2594 108.551 47.6506C109.115 40.4021 108.376 33.1894 107.785 25.9767C107.467 22.1106 107.157 18.2444 106.75 14.3872C106.602 12.9895 106.257 11.6007 105.849 10.2522C105.621 9.49064 105.186 8.73353 104.662 8.1377C103.672 7.01772 102.633 7.19244 102.113 8.61257C101.732 9.64296 101.575 10.7809 101.468 11.8829C100.662 19.8213 99.8999 27.7642 99.1159 35.7026C99.0129 36.742 98.8203 37.7724 98.7575 38.8117C98.6859 39.9675 98.1214 40.6485 96.9969 40.7381C96.0158 40.8142 95.3349 39.8734 95.4514 38.4936C95.7963 34.3318 96.1816 30.1744 96.5937 26.017C97.1224 20.7487 97.6644 15.4848 98.2782 10.2253C98.4126 9.06057 98.6724 7.84203 99.1831 6.80717C100.796 3.55027 104.81 2.9634 107.139 5.74543C108.197 7.00876 108.967 8.66633 109.393 10.2701C110.002 12.5594 110.347 14.9517 110.504 17.3171C111.113 26.5457 111.861 35.7788 112.072 45.0164C112.273 53.9538 109.16 61.8116 102.884 68.3254C100.554 70.7445 98.2065 73.1592 96.0338 75.7172C94.2507 77.8139 92.6245 80.0538 91.1058 82.3475C90.1247 83.8349 89.5379 85.5507 90.1471 87.4367C93.2114 87.7413 95.4558 89.0853 96.5041 92.0152C96.7237 92.6334 96.8849 93.3144 96.8894 93.9684C96.9297 97.1581 96.9073 100.352 96.9073 103.699ZM93.4892 100.361C93.4892 98.1751 93.637 96.1009 93.4488 94.058C93.2562 91.9525 92.1586 91.0475 90.0217 91.0386C82.7239 91.0117 75.4261 91.0296 68.1284 91.0789C66.305 91.0923 65.3015 91.827 65.0507 93.6548C64.755 95.8231 64.8043 98.0451 64.6967 100.361C74.4719 100.361 83.8887 100.361 93.4892 100.361Z" fill="white" fill-opacity="0.56"/>
<path d="M58.0981 20.2644C58.6491 19.5117 59.1285 18.8532 59.6213 18.1991C67.9629 7.08892 81.2503 11.4658 85.7481 20.4749C88.5302 26.0479 88.221 31.5582 85.3584 36.9789C82.872 41.6918 79.1985 45.4056 75.0187 48.5953C69.9788 52.4391 64.7866 56.0768 59.7019 59.8623C58.5685 60.7046 57.6994 60.8166 56.5212 59.9295C51.0333 55.8125 45.4065 51.8791 39.9948 47.668C36.0255 44.5813 32.6835 40.863 30.4212 36.2845C27.0164 29.3944 28.1275 21.7203 33.3152 16.434C39.9052 9.72311 49.6176 10.0636 55.7282 17.2404C56.5436 18.1902 57.2827 19.2161 58.0981 20.2644Z" fill="white" fill-opacity="0.56"/>
<path d="M43.2759 19.3369C44.4452 19.2697 45.153 19.6326 45.3143 20.5913C45.4845 21.6082 44.9828 22.2399 43.9793 22.5848C40.3326 23.8347 39.3112 25.3758 39.5441 29.1793C39.58 29.7706 39.9205 30.4337 39.7413 30.922C39.4904 31.6029 38.9931 32.4317 38.3928 32.6602C37.9672 32.8214 36.8383 32.2435 36.6456 31.7507C34.9164 27.3156 36.8383 20.757 42.1828 19.4668C42.6129 19.3638 43.0654 19.3593 43.2759 19.3369Z" fill="white" fill-opacity="0.56"/>
<path d="M42.7984 36.161C42.7939 37.1107 42.0368 37.8544 41.1005 37.823C40.1463 37.7917 39.4788 37.0435 39.5236 36.0669C39.5684 35.0724 40.1463 34.6065 41.0781 34.5482C42.0637 34.49 42.8029 35.2112 42.7984 36.161Z" fill="white" fill-opacity="0.56"/>
</g>
<defs>
<filter id="filter0_d_5_6587" x="0.0800781" y="0.969727" width="116.001" height="107.729" filterUnits="userSpaceOnUse" color-interpolation-filters="sRGB">
<feFlood flood-opacity="0" result="BackgroundImageFix"/>
<feColorMatrix in="SourceAlpha" type="matrix" values="0 0 0 0 0 0 0 0 0 0 0 0 0 0 0 0 0 0 127 0" result="hardAlpha"/>
<feOffset dy="1"/>
<feGaussianBlur stdDeviation="2"/>
<feComposite in2="hardAlpha" operator="out"/>
<feColorMatrix type="matrix" values="0 0 0 0 0 0 0 0 0 0 0 0 0 0 0 0 0 0 0.25 0"/>
<feBlend mode="normal" in2="BackgroundImageFix" result="effect1_dropShadow_5_6587"/>
<feBlend mode="normal" in="SourceGraphic" in2="effect1_dropShadow_5_6587" result="shape"/>
</filter>
</defs>
</svg>
