<svg width="104" height="104" viewBox="0 0 104 104" fill="none" xmlns="http://www.w3.org/2000/svg">
<g filter="url(#filter0_d_5_6581)">
<path d="M20.8648 11.7374C20.8648 9.99854 20.8105 8.40682 20.8811 6.82056C20.9572 5.0326 22.1309 3.94239 23.7773 3.99145C25.3586 4.04051 26.5051 5.21249 26.5268 6.85326C26.5486 8.43953 26.5323 10.0258 26.5323 11.6829C33.9494 11.6829 41.2469 11.6829 48.7021 11.6829C48.7021 10.0585 48.6858 8.47769 48.7075 6.89687C48.7238 5.7794 49.1748 4.88542 50.1855 4.34032C51.1853 3.80066 52.1851 3.87152 53.1306 4.46024C54.0706 5.04351 54.3912 5.97564 54.4075 7.0168C54.4347 8.52675 54.413 10.0421 54.413 11.6502C61.8246 11.6502 69.1222 11.6502 76.6099 11.6502C76.6099 10.0421 76.5936 8.42318 76.6154 6.79875C76.6371 5.29426 77.6152 4.20949 79.0551 4.04051C80.7722 3.83882 82.1306 4.92903 82.2013 6.66248C82.2665 8.2869 82.2176 9.91677 82.2176 11.7429C82.9511 11.7429 83.5326 11.7429 84.114 11.7429C86.1027 11.7374 86.4233 11.7374 88.4121 11.7265C94.4327 11.6938 99.1384 16.2836 99.1547 22.3343C99.1873 34.1523 99.1655 45.9702 99.1655 57.7827C99.1655 67.6819 99.1058 77.5865 99.1873 87.4856C99.2307 92.4843 95.5629 96.9433 90.8627 97.9353C90.0531 98.1043 89.2054 98.197 88.3795 98.197C74.0941 98.2025 61.4769 98.1861 47.1915 98.1861C36.726 98.1861 27.456 98.197 16.9905 98.2134C14.8659 98.2188 12.7685 98.088 10.8449 97.0632C7.03587 95.0299 5.00907 91.8192 4.98191 87.502C4.92213 77.641 4.96017 67.78 4.96017 57.919C4.96017 46.1392 4.95474 34.3649 4.9656 22.5851C4.97104 17.0904 8.56276 12.7077 13.9585 11.8846C16.0614 11.563 17.0503 11.7592 19.1967 11.7265C19.6966 11.7265 20.2019 11.7374 20.8648 11.7374ZM76.6317 18.1643C73.5616 19.2109 72.5835 22.7214 72.9639 24.8309C73.5616 28.1724 76.1154 30.3311 79.4681 30.2984C82.8479 30.2711 85.4344 28.058 85.9234 24.7819C86.3473 21.9419 84.766 19.0037 82.2447 18.1643C82.2447 18.6712 82.2447 19.1345 82.2447 19.6033C82.2502 20.9988 82.3371 22.3997 82.223 23.7843C82.1632 24.4875 81.8861 25.2888 81.446 25.8176C80.669 26.7552 79.5496 26.9187 78.4031 26.4826C77.2294 26.0411 76.6534 25.1471 76.6425 23.9042C76.6154 22.0073 76.6317 20.1157 76.6317 18.1643ZM48.7129 18.1643C45.795 19.2272 44.6322 22.4597 45.2081 25.3542C45.8113 28.3905 48.5119 30.3692 51.8971 30.2711C55.065 30.1784 57.5645 27.9926 57.9884 24.9454C58.4122 21.8928 56.9397 19.0201 54.4293 18.1806C54.4293 19.9522 54.4945 21.702 54.3967 23.4409C54.3532 24.1931 54.1195 25.0272 53.7066 25.654C53.0654 26.6407 51.7015 26.9296 50.6093 26.548C49.4791 26.1501 48.7347 25.1144 48.7129 23.7789C48.6912 21.9473 48.7129 20.1157 48.7129 18.1643ZM20.8485 18.1315C18.4794 18.8565 16.5558 22.0836 17.3981 25.4905C18.1914 28.7012 20.8866 30.5382 24.4131 30.2438C27.6516 29.9767 29.874 27.6927 30.1946 24.3076C30.45 21.6093 28.7927 18.802 26.5268 18.2188C26.5268 19.1564 26.5268 20.0667 26.5268 20.9825C26.5268 21.9419 26.5486 22.9012 26.5214 23.8552C26.467 25.6431 25.1303 26.8315 23.3915 26.6788C21.957 26.5535 20.892 25.3433 20.8594 23.7135C20.8214 21.8873 20.8485 20.0612 20.8485 18.1315ZM67.4431 88.1016L81.5329 96.7743L81.2069 88.9738C81.2069 88.7721 81.2015 88.5704 81.2123 88.3687C81.2721 87.1095 82.1741 86.3682 82.9566 86.3845C83.1631 86.39 83.3641 86.3791 83.5706 86.3845C84.6247 86.4118 85.6735 86.39 86.7276 86.3791C87.3308 86.3736 87.9611 86.3736 88.5588 86.2428C91.254 85.6541 93.2101 83.937 94.4055 81.1079C94.9109 79.9141 95.1282 78.644 95.1282 77.3194C95.1282 71.9882 95.1282 68.3687 95.1282 63.0375C95.1282 52.1027 95.1282 51.2469 95.1282 40.312C95.1282 39.5216 95.063 38.7421 94.9054 37.9735C94.248 34.7955 92.0636 32.2171 89.3087 31.3722C88.5805 31.1487 87.8415 31.067 87.0917 31.067C85.1844 31.0724 83.2772 31.067 81.3699 31.067C60.2054 31.0724 39.0408 31.0724 17.8708 31.0779C17.6372 31.0779 17.3981 31.0779 17.1644 31.0779C16.7895 31.0833 16.42 31.1269 16.0505 31.1978C13.301 31.7211 10.7743 34.0923 9.8886 37.4502C9.64952 38.3605 9.54084 39.2926 9.54084 40.2411C9.54628 56.4363 9.54084 61.0915 9.54084 77.2867C9.54084 77.4229 9.54084 77.5592 9.54084 77.69C9.54628 79.1128 9.8234 80.4646 10.4157 81.7075C11.7578 84.5312 13.8227 87.1368 16.6319 87.502C17.0612 87.5565 17.4959 87.5729 17.9252 87.5729C33.8189 87.5783 49.7127 87.5783 65.6065 87.5783C65.8402 87.5783 66.0793 87.5783 66.3129 87.5838C66.7476 87.5892 67.4431 88.1016 67.4431 88.1016Z" fill="white" fill-opacity="0.56"/>
<path d="M56.5832 59.133C56.5288 61.7141 54.4966 63.6213 51.8667 63.5561C49.4215 63.4964 47.4816 61.3989 47.5414 58.8831C47.6066 56.3999 49.6823 54.4872 52.2688 54.5361C54.6814 54.5741 56.6375 56.6607 56.5832 59.133Z" fill="white" fill-opacity="0.56"/>
<path d="M71.959 63.5477C69.4051 63.5423 67.4707 61.6024 67.4707 59.054C67.4761 56.4892 69.3943 54.5494 71.9427 54.544C74.5183 54.5385 76.4908 56.511 76.4799 59.0757C76.4745 61.6024 74.502 63.5477 71.959 63.5477Z" fill="white" fill-opacity="0.56"/>
<path d="M32.0964 63.5478C29.5479 63.5369 27.5592 61.5264 27.5972 58.9834C27.6353 56.4404 29.624 54.5277 32.2214 54.544C34.6666 54.5604 36.6499 56.5708 36.6553 59.0269C36.6499 61.5699 34.6448 63.5532 32.0964 63.5478Z" fill="white" fill-opacity="0.56"/>
</g>
<defs>
<filter id="filter0_d_5_6581" x="0.948242" y="0.974121" width="102.239" height="102.239" filterUnits="userSpaceOnUse" color-interpolation-filters="sRGB">
<feFlood flood-opacity="0" result="BackgroundImageFix"/>
<feColorMatrix in="SourceAlpha" type="matrix" values="0 0 0 0 0 0 0 0 0 0 0 0 0 0 0 0 0 0 127 0" result="hardAlpha"/>
<feOffset dy="1"/>
<feGaussianBlur stdDeviation="2"/>
<feComposite in2="hardAlpha" operator="out"/>
<feColorMatrix type="matrix" values="0 0 0 0 0 0 0 0 0 0 0 0 0 0 0 0 0 0 0.25 0"/>
<feBlend mode="normal" in2="BackgroundImageFix" result="effect1_dropShadow_5_6581"/>
<feBlend mode="normal" in="SourceGraphic" in2="effect1_dropShadow_5_6581" result="shape"/>
</filter>
</defs>
</svg>
