<svg width="126" height="93" viewBox="0 0 126 93" fill="none" xmlns="http://www.w3.org/2000/svg">
<g filter="url(#filter0_d_5_6593)">
<path d="M4.00596 69.7829C4.00597 56.0978 4.00597 42.8123 4.00597 29.3322C8.13557 29.3322 12.1422 29.1016 16.1027 29.4039C19.5919 29.6703 21.7336 32.3602 22.6558 36.9663C23.5729 36.9663 24.5669 36.9407 25.5609 36.9714C30.6742 37.12 35.8285 36.9356 40.8906 37.5248C47.1363 38.2523 52.5827 41.0396 57.0658 45.5739C61.3235 49.8829 65.7195 54.0586 69.8799 58.4597C71.1864 59.838 72.0984 61.6825 72.8618 63.4604C73.7789 65.5969 73.2256 67.6668 71.5963 69.3474C70.0592 70.9306 68.2045 71.0433 66.155 70.4797C61.7897 69.2808 58.1622 66.7087 54.4323 64.3262C52.347 62.9941 50.3385 61.5493 48.2993 60.1454C47.0184 59.259 46.6137 58.1779 47.1773 57.184C47.7255 56.2156 48.9757 56.0004 50.3232 56.8561C52.844 58.4495 55.2623 60.212 57.7934 61.7952C60.1041 63.2452 62.4763 64.5927 64.869 65.8992C65.6734 66.3398 66.6059 66.6114 67.5179 66.7805C68.6912 67.0008 69.4085 66.3398 69.1933 65.187C69.0089 64.2187 68.6553 63.1478 68.0303 62.4203C62.6198 56.149 56.9275 50.1186 50.2822 45.1487C46.8186 42.5613 42.648 41.2599 38.3237 41.0857C33.1438 40.8756 27.9485 41.0344 22.6097 41.0344C22.6097 46.6601 22.6097 52.1577 22.6097 57.8449C30.0594 57.6246 34.768 62.5637 39.7788 66.8778C43.4627 70.0493 46.9416 73.4616 50.6511 76.6024C55.6619 80.8396 61.6924 82.5969 68.1071 83.0991C76.3971 83.7446 84.6461 82.8992 92.895 82.2229C97.3167 81.8592 101.738 81.5056 106.15 81.0394C107.748 80.8703 109.337 80.4758 110.879 80.0095C111.75 79.7482 112.616 79.2513 113.297 78.6518C114.578 77.5195 114.378 76.3308 112.754 75.7365C111.576 75.301 110.274 75.1216 109.014 74.9987C99.9348 74.0764 90.8507 73.2054 81.7717 72.3088C80.5831 72.191 79.4046 71.9706 78.216 71.8989C76.8941 71.8169 76.1153 71.1714 76.0128 69.8853C75.9257 68.7633 77.0017 67.9845 78.5797 68.1177C83.3395 68.5122 88.0942 68.9528 92.8489 69.4242C98.8742 70.0288 104.894 70.6488 110.91 71.3507C112.242 71.5044 113.635 71.8016 114.819 72.3856C118.544 74.2301 119.215 78.8209 116.033 81.4851C114.588 82.6943 112.693 83.5756 110.858 84.0623C108.24 84.7591 105.504 85.1536 102.799 85.3329C92.2443 86.0298 81.6846 86.8854 71.1198 87.1262C60.8982 87.3568 51.9115 83.7959 44.4618 76.6177C41.695 73.9535 38.9334 71.2687 36.0079 68.7838C33.61 66.7446 31.0482 64.8847 28.425 63.1478C26.7239 62.0258 24.7616 61.3546 22.6046 62.0514C22.2562 65.5559 20.7191 68.1228 17.3683 69.3217C16.6612 69.5728 15.8824 69.7572 15.1344 69.7624C11.4864 69.8085 7.83328 69.7829 4.00596 69.7829ZM7.82303 65.8736C10.3233 65.8736 12.6956 66.0427 15.0319 65.8275C17.44 65.6071 18.475 64.3519 18.4852 61.9079C18.516 53.5616 18.4955 45.2153 18.4391 36.869C18.4237 34.7837 17.5835 33.636 15.493 33.3491C13.0132 33.0109 10.4719 33.0673 7.82303 32.9443C7.82303 44.124 7.82303 54.8937 7.82303 65.8736Z" fill="white" fill-opacity="0.56"/>
<path d="M116.656 42.3158C116.705 42.6469 116.769 42.8796 116.769 43.1101C116.776 48.2298 116.776 53.3496 116.772 58.4694C116.772 59.1756 116.675 59.8609 116.172 60.4163C115.594 61.0554 114.867 61.2734 114.018 61.2713C109.732 61.2566 105.447 61.265 101.163 61.265C93.7421 61.265 86.3213 61.2671 78.9005 61.2629C76.9242 61.2629 76.0189 60.3869 76.0126 58.3981C75.9958 53.3475 76.0063 48.2969 76.0105 43.2484C76.0105 42.9781 76.0587 42.7077 76.0964 42.2886C76.4946 42.4709 76.8027 42.5945 77.094 42.7496C81.8763 45.3064 86.6922 47.8065 91.4264 50.4513C94.7711 52.3185 97.9712 52.3311 101.32 50.4743C106.094 47.8254 110.935 45.298 115.751 42.7224C116.017 42.5799 116.302 42.473 116.656 42.3158Z" fill="white" fill-opacity="0.56"/>
<path d="M96.4963 33.4836C102.28 33.4836 108.064 33.5255 113.846 33.4564C115.435 33.4375 116.705 34.2842 116.824 36.4029C116.927 38.2157 116.361 39.1566 114.712 39.9844C109.772 42.4615 104.944 45.1608 100.067 47.7636C99.4239 48.1073 98.7722 48.4594 98.0848 48.6857C96.5549 49.1866 95.0419 49.0022 93.6357 48.2519C87.9563 45.2278 82.2917 42.1765 76.6187 39.1441C76.254 38.9492 75.9921 38.7417 76.0047 38.2806C76.0256 37.4801 75.9753 36.6753 76.0298 35.879C76.1346 34.347 77.0693 33.4899 78.6264 33.4878C84.5823 33.4794 90.5382 33.4836 96.4963 33.4836Z" fill="white" fill-opacity="0.56"/>
<path d="M103.747 30.4449C103.747 29.4012 103.751 28.4372 103.745 27.4732C103.735 25.9161 103.255 25.4215 101.681 25.4153C98.1664 25.4027 94.6498 25.4027 91.1354 25.4153C89.4965 25.4194 89.0376 25.8994 89.0271 27.534C89.0208 28.4037 89.0145 29.2734 89.0041 30.1431C89.0041 30.2081 88.9559 30.271 88.893 30.4302C87.9877 30.4302 87.0425 30.4302 85.9905 30.4302C85.9758 28.892 85.7578 27.3726 86.1288 25.8742C86.6443 23.7806 88.3649 22.4184 90.5192 22.4058C94.4172 22.3807 98.3152 22.3807 102.213 22.4038C104.55 22.4184 106.425 24.0195 106.761 26.3353C106.899 27.2909 106.815 28.2801 106.828 29.2525C106.832 29.6276 106.828 30.0006 106.828 30.4491C105.793 30.4449 104.873 30.4449 103.747 30.4449Z" fill="white" fill-opacity="0.56"/>
<path d="M76.0569 15.3453C76.082 15.9929 75.6671 16.5985 75.0635 16.8374C74.46 17.0784 73.7537 16.9632 73.3891 16.3827C72.5215 15.0058 71.6979 13.5975 70.9413 12.1578C70.5955 11.4976 70.9225 10.7243 71.5218 10.3345C72.1484 9.92794 72.9804 9.9489 73.3933 10.5902C74.3279 12.0446 75.1432 13.5744 76.0003 15.077C76.0485 15.1651 76.0443 15.2803 76.0569 15.3453Z" fill="white" fill-opacity="0.56"/>
<path d="M118.521 16.9421C117.203 16.9484 116.385 15.865 116.855 14.9303C117.584 13.478 118.412 12.0697 119.282 10.6949C119.724 9.99495 120.556 9.90903 121.218 10.3198C121.861 10.718 122.18 11.5185 121.807 12.2248C121.063 13.6331 120.254 15.0099 119.399 16.3533C119.189 16.6844 118.693 16.8332 118.521 16.9421Z" fill="white" fill-opacity="0.56"/>
<path d="M94.8928 7.38289C94.8928 6.65359 94.8677 5.9243 94.8991 5.19709C94.9389 4.28547 95.5697 3.6379 96.3724 3.62952C97.1771 3.61904 97.8498 4.26451 97.8708 5.16775C97.9064 6.62425 97.9043 8.08076 97.8729 9.53726C97.8519 10.4761 97.2358 11.0818 96.4038 11.0902C95.5697 11.0985 94.9494 10.495 94.9033 9.5666C94.8677 8.83939 94.897 8.1101 94.897 7.38289C94.8949 7.38289 94.8949 7.38289 94.8928 7.38289Z" fill="white" fill-opacity="0.56"/>
</g>
<defs>
<filter id="filter0_d_5_6593" x="0.00585938" y="0.629395" width="125.96" height="91.5073" filterUnits="userSpaceOnUse" color-interpolation-filters="sRGB">
<feFlood flood-opacity="0" result="BackgroundImageFix"/>
<feColorMatrix in="SourceAlpha" type="matrix" values="0 0 0 0 0 0 0 0 0 0 0 0 0 0 0 0 0 0 127 0" result="hardAlpha"/>
<feOffset dy="1"/>
<feGaussianBlur stdDeviation="2"/>
<feComposite in2="hardAlpha" operator="out"/>
<feColorMatrix type="matrix" values="0 0 0 0 0 0 0 0 0 0 0 0 0 0 0 0 0 0 0.25 0"/>
<feBlend mode="normal" in2="BackgroundImageFix" result="effect1_dropShadow_5_6593"/>
<feBlend mode="normal" in="SourceGraphic" in2="effect1_dropShadow_5_6593" result="shape"/>
</filter>
</defs>
</svg>
