<svg width="105" height="114" viewBox="0 0 105 114" fill="none" xmlns="http://www.w3.org/2000/svg">
<g filter="url(#filter0_d_5_6574)">
<path d="M78.9798 108.634C77.1974 108.403 75.4034 107.987 73.5678 107.473C73.0615 107.33 72.5783 107.097 72.1183 106.852C71.1866 106.356 70.9138 105.515 71.3877 104.739C71.8478 103.984 72.7379 103.81 73.7874 104.12C75.6693 104.677 77.5419 105.375 79.4792 105.633C87.5151 106.703 95.5742 101.357 96.9359 94.1903C98.4825 86.0462 92.904 78.8956 83.8046 77.3599C75.5051 75.9588 66.7802 81.5572 65.5295 89.0307C64.903 92.7684 65.6752 96.204 67.9524 99.3768C68.4887 100.124 68.565 100.877 67.8252 101.538C67.2126 102.084 66.4473 102.156 65.7214 101.728C65.3839 101.529 65.1157 101.202 64.8915 100.892C63.0674 98.3565 62.071 95.5728 61.8214 92.398C61.3359 92.398 60.8573 92.398 60.3788 92.398C43.6966 92.398 27.0143 92.3855 10.3321 92.4125C7.89776 92.4166 6.04366 91.6425 5.0357 89.635C4.68661 88.9396 4.55484 88.1035 4.55484 87.3294C4.53172 60.958 4.52941 34.5886 4.54097 8.21723C4.54559 5.0217 6.67942 3.14453 10.2119 3.14453C36.4651 3.14453 62.7184 3.14453 88.9716 3.14453C92.5133 3.14453 94.6101 5.03205 94.6101 8.22344C94.6125 22.3736 94.6125 36.5217 94.6101 50.6719C94.6101 50.9471 94.6402 51.2286 94.5847 51.4956C94.4067 52.3628 93.7663 52.8574 92.8208 52.8284C91.8868 52.7994 91.2441 52.311 91.1655 51.4066C91.1331 51.0299 91.147 50.6491 91.147 50.2703C91.147 36.3975 91.147 22.5226 91.147 8.64979C91.147 6.67121 90.6569 6.23451 88.4375 6.23451C62.5311 6.23451 36.6223 6.23451 10.7159 6.23451C8.52889 6.23451 8.08501 6.62774 8.08501 8.57528C8.08501 34.7045 8.08501 60.8338 8.08501 86.9631C8.08501 88.9251 8.49421 89.2852 10.7136 89.2873C27.3565 89.2873 44.0017 89.2811 60.6446 89.3038C61.5948 89.3059 61.9878 89.1507 62.1797 88.1883C63.9205 79.382 73.3019 73.202 83.296 74.1665C85.7327 74.4024 88.0214 75.0191 90.1969 76.0064C90.4604 76.1264 90.7378 76.2196 91.1493 76.3789C91.1493 75.8988 91.1493 75.5324 91.1493 75.1661C91.1493 69.8988 91.1586 64.6316 91.1401 59.3644C91.1378 58.4372 91.4152 57.7128 92.5064 57.4913C93.6554 57.2575 94.5778 57.9756 94.6032 59.1201C94.6333 60.5648 94.6101 62.0114 94.6101 63.4581C94.6101 68.2783 94.5893 73.0985 94.6402 77.9167C94.6448 78.4258 94.9361 79.0425 95.3245 79.4213C104.706 88.567 101.069 102.781 88.4815 107.631C85.2611 108.872 82.1424 109.044 78.9798 108.634Z" fill="white" fill-opacity="0.56"/>
<path d="M49.5377 70.6628C40.006 70.6628 30.4766 70.6649 20.9449 70.6628C17.7361 70.6628 16.1895 69.2968 16.1895 66.449C16.1872 52.6817 16.1872 38.9145 16.1895 25.1472C16.1895 22.3656 17.75 20.9748 20.8756 20.9748C40.013 20.9706 59.1527 20.9706 78.2901 20.9748C81.4272 20.9748 83.0409 22.4277 83.0409 25.2424C83.0432 38.9766 83.0432 52.7086 83.0409 66.4428C83.0409 69.1892 81.4041 70.6628 78.3594 70.6628C68.7514 70.6649 59.1457 70.6628 49.5377 70.6628Z" fill="white" fill-opacity="0.56"/>
<path d="M83.0451 89.9349C84.7998 89.9349 86.4042 89.8997 88.0086 89.9535C88.5542 89.9722 89.264 90.0757 89.583 90.3944C89.9575 90.769 90.2835 91.5306 90.0985 91.9218C89.8604 92.4185 89.1299 92.9587 88.538 93.0373C87.2203 93.2091 85.8586 93.1056 84.5154 93.1118C84.0669 93.1139 83.6161 93.1118 83.0451 93.1118C83.0451 94.6723 83.0752 96.1087 83.0266 97.5429C83.0104 98.0024 82.9388 98.6005 82.6151 98.8758C82.2013 99.2318 81.4962 99.5153 80.939 99.4884C80.1068 99.447 79.5774 98.8489 79.5404 98.0748C79.4849 96.9075 79.508 95.7361 79.4988 94.5688C79.4964 94.1301 79.4988 93.6913 79.4988 93.1139C78.0816 93.1139 76.7893 93.116 75.4993 93.1139C75.0392 93.1139 74.5745 93.1325 74.1168 93.0973C73.0372 93.0125 72.3113 92.3874 72.2904 91.5617C72.2696 90.7048 73.0487 89.9887 74.1607 89.9535C75.5802 89.9101 77.002 89.9411 78.4238 89.937C78.7243 89.9349 79.0248 89.9142 79.4988 89.8956C79.4988 88.9436 79.4988 88.0308 79.4988 87.1161C79.4988 86.5655 79.4872 86.015 79.5034 85.4645C79.5404 84.1958 80.2131 83.4797 81.3205 83.5107C82.3816 83.5418 83.022 84.2496 83.0405 85.4521C83.0567 86.5531 83.0451 87.6542 83.0451 88.7531C83.0451 89.0905 83.0451 89.432 83.0451 89.9349Z" fill="white" fill-opacity="0.56"/>
<path d="M31.3468 77.8343C31.3861 78.9829 30.288 80.0157 28.9795 80.057C27.6686 80.0984 26.522 79.1547 26.4549 77.9833C26.3879 76.7974 27.5438 75.7025 28.8708 75.6901C30.1492 75.6756 31.3075 76.6835 31.3468 77.8343Z" fill="white" fill-opacity="0.56"/>
<path d="M20.3636 80.0449C19.0505 80.0635 17.92 79.1011 17.8807 77.9339C17.8437 76.7624 19.0436 75.6697 20.3521 75.6862C21.6536 75.7007 22.7518 76.7024 22.7541 77.8759C22.7587 79.0742 21.7091 80.0263 20.3636 80.0449Z" fill="white" fill-opacity="0.56"/>
<path d="M37.4822 75.6862C38.756 75.7028 39.9027 76.7314 39.9142 77.8697C39.9258 79.066 38.7444 80.0884 37.392 80.0532C36.0581 80.018 35.0224 79.0411 35.0501 77.8407C35.0732 76.6652 36.1968 75.6697 37.4822 75.6862Z" fill="white" fill-opacity="0.56"/>
</g>
<defs>
<filter id="filter0_d_5_6574" x="0.53418" y="0.144531" width="104.069" height="113.688" filterUnits="userSpaceOnUse" color-interpolation-filters="sRGB">
<feFlood flood-opacity="0" result="BackgroundImageFix"/>
<feColorMatrix in="SourceAlpha" type="matrix" values="0 0 0 0 0 0 0 0 0 0 0 0 0 0 0 0 0 0 127 0" result="hardAlpha"/>
<feOffset dy="1"/>
<feGaussianBlur stdDeviation="2"/>
<feComposite in2="hardAlpha" operator="out"/>
<feColorMatrix type="matrix" values="0 0 0 0 0 0 0 0 0 0 0 0 0 0 0 0 0 0 0.25 0"/>
<feBlend mode="normal" in2="BackgroundImageFix" result="effect1_dropShadow_5_6574"/>
<feBlend mode="normal" in="SourceGraphic" in2="effect1_dropShadow_5_6574" result="shape"/>
</filter>
</defs>
</svg>
