<svg width="99" height="124" viewBox="0 0 99 124" fill="none" xmlns="http://www.w3.org/2000/svg">
<g filter="url(#filter0_d_5_6602)">
<path d="M4.05859 92.776C4.15293 92.3421 4.2284 91.9082 4.36046 91.4931C4.66233 90.5686 4.92647 89.6253 5.28494 88.7197C8.7753 80.022 12.2845 71.3433 15.7749 62.6457C15.907 62.325 16.0202 62.0042 16.1711 61.7212C16.6428 60.8911 17.454 60.6081 18.2653 60.9288C19.1332 61.2873 19.5483 62.1174 19.2653 63.0419C19.1332 63.4758 18.9445 63.8721 18.7747 64.306C15.2466 73.0791 11.7563 81.8521 8.19043 90.5875C6.56788 94.5495 8.19043 99.1719 12.3977 101.002C17.9257 103.398 23.4348 105.888 28.9439 108.322C29.076 108.379 29.2269 108.417 29.4345 108.492C29.4533 108.341 29.5099 108.209 29.5099 108.077C29.4722 106.53 29.3779 105.002 29.3779 103.455C29.359 85.3802 29.359 67.3058 29.3779 49.2125C29.3779 48.1749 29.4533 47.0994 29.642 46.0806C29.925 44.4958 30.7363 43.1563 31.774 41.9111C34.4342 38.7037 37.0755 35.4775 39.9056 32.0626C39.4339 32.2513 39.1698 32.3456 38.9433 32.4588C36.6227 33.5908 34.3021 34.7605 31.9626 35.8359C30.3212 36.5906 29.2647 37.7792 28.6232 39.4395C26.5667 44.76 24.4536 50.0427 22.3594 55.3442C22.2273 55.6838 22.0953 56.0612 21.8877 56.3631C21.4161 57.0423 20.6237 57.2498 19.9067 56.9291C19.1143 56.5895 18.7181 55.8536 18.9068 55.0235C18.9823 54.665 19.1143 54.3066 19.2653 53.967C21.3406 48.7031 23.4537 43.4581 25.4913 38.1754C26.4535 35.7039 28.0949 33.9304 30.4721 32.7795C36.0379 30.1004 41.5847 27.3647 47.1504 24.6479C48.3768 24.0442 49.6786 23.7423 51.0558 23.7423C58.4705 23.7989 65.904 23.7801 73.3376 23.7801C73.5828 23.7801 73.847 23.7801 74.2243 23.7801C74.2243 23.2895 74.2243 22.8933 74.2243 22.4971C74.2243 16.8559 74.2432 11.2147 74.2243 5.59243C74.2243 4.55476 74.413 3.66802 75.2808 3.04541C75.7337 3.04541 76.1865 3.04541 76.6393 3.04541C77.4694 3.64915 77.7335 4.44156 77.7335 5.46036C77.6958 11.4034 77.7713 17.3465 77.6769 23.2706C77.6581 24.6102 77.9599 25.4781 78.9976 26.4025C80.4126 27.6666 81.5258 29.2703 82.7521 30.7419C85.884 34.5341 88.997 38.3452 92.1478 42.1186C93.8269 44.1374 94.6382 46.4202 94.6382 49.0616C94.6005 61.9854 94.6193 74.9091 94.6193 87.8518C94.6193 88.3423 94.6193 88.8329 94.4873 89.3045C94.2797 90.1347 93.6383 90.5497 92.827 90.5309C92.0157 90.512 91.412 90.0403 91.2422 89.1913C91.1479 88.7197 91.1479 88.2291 91.1479 87.7386C91.1479 74.8903 91.129 62.0231 91.1667 49.1748C91.1667 47.2692 90.6573 45.6656 89.431 44.2128C85.4123 39.4018 81.4314 34.5341 77.4505 29.7042C77.2807 29.4967 77.1487 29.2892 76.8845 28.9307C76.677 29.3458 76.5449 29.5722 76.4695 29.7797C74.7903 33.7606 71.9791 36.6661 68.036 38.4207C67.5077 38.6471 67.2625 38.949 67.0927 39.5338C66.3757 42.1186 63.8664 43.7223 61.2251 43.3638C58.7535 43.0242 56.7914 40.8168 56.6782 38.232C56.5838 36.1567 57.9045 34.0813 59.8855 33.2323C61.9231 32.3456 64.2438 32.8173 65.7908 34.4021C66.055 34.6662 66.2814 34.9681 66.6021 35.3265C70.1302 33.7229 72.4697 31.1004 73.7338 27.2704C73.281 27.2327 72.9225 27.1572 72.5829 27.1572C65.4512 27.1572 58.3007 27.1572 51.169 27.1572C49.188 27.1572 47.6598 28.0628 46.4146 29.5722C45.0562 31.2324 43.6978 32.8739 42.3205 34.5341C39.7358 37.666 37.1887 40.8168 34.5662 43.9109C33.3588 45.326 32.8116 46.873 32.8305 48.7409C32.8871 53.7406 32.8494 58.7403 32.8494 63.74C32.8494 77.8335 32.8494 91.927 32.8494 106.021C32.8494 107.379 32.9248 108.718 33.5097 109.983C34.9436 113.152 37.3963 114.831 40.8489 115.114C40.9621 115.114 41.0753 115.114 41.1885 115.114C54.9801 115.114 68.7529 115.133 82.5446 115.095C85.6576 115.095 88.1103 113.718 89.8272 111.115C90.6196 109.907 91.1101 108.568 91.1101 107.096C91.129 103.945 91.129 100.776 91.1479 97.6248C91.1479 97.2097 91.1667 96.7947 91.2422 96.3985C91.412 95.5495 91.9969 95.0778 92.8081 95.04C93.6571 95.0023 94.2986 95.474 94.525 96.3419C94.6005 96.6249 94.6193 96.9267 94.6193 97.2286C94.6193 100.304 94.6571 103.398 94.6193 106.473C94.525 112.077 90.9026 116.737 85.5633 118.114C84.6954 118.341 83.7898 118.454 82.903 118.454C68.8473 118.473 54.8103 118.492 40.7546 118.454C37.0567 118.435 34.1134 116.756 31.8872 113.869C31.4344 113.265 30.8872 112.907 30.2269 112.605C23.831 109.813 17.4729 106.983 11.0959 104.153C7.53009 102.568 5.28494 99.8888 4.37933 96.0777C4.285 95.6627 4.17179 95.2476 4.05859 94.8136C4.05859 94.1344 4.05859 93.4552 4.05859 92.776Z" fill="white" fill-opacity="0.56"/>
<path d="M47.3765 93.0015C46.6973 93.0015 46.2445 92.7185 45.9238 92.1903C45.5842 91.5865 45.5276 90.9828 45.9238 90.3791C46.1125 90.096 46.3577 89.8696 46.603 89.6244C55.9043 80.323 65.1868 71.0217 74.4882 61.7203C74.6957 61.5128 74.9032 61.2864 75.1485 61.0977C75.8654 60.5695 76.8088 60.6261 77.4125 61.2298C78.0163 61.8335 78.0917 62.7392 77.5446 63.4938C77.3748 63.7391 77.1484 63.9466 76.922 64.1542C67.6206 73.4555 58.3382 82.7569 49.0368 92.0582C48.5463 92.5487 48.0746 93.0581 47.3765 93.0015Z" fill="white" fill-opacity="0.56"/>
<path d="M50.9065 60.5271C54.1138 60.3762 58.2834 62.9044 58.2834 67.8663C58.2834 72.734 54.1516 75.2433 50.7744 75.2244C47.567 75.2055 43.3975 72.7717 43.3975 67.8475C43.4163 62.9232 47.6048 60.3196 50.9065 60.5271Z" fill="white" fill-opacity="0.56"/>
<path d="M72.9586 78.362C76.1849 78.1922 80.3544 80.7203 80.3922 85.6445C80.4299 90.5122 76.2981 93.0592 72.9209 93.0403C69.7135 93.0403 65.5251 90.6443 65.4874 85.72C65.4685 80.7958 69.6569 78.1544 72.9586 78.362Z" fill="white" fill-opacity="0.56"/>
</g>
<defs>
<filter id="filter0_d_5_6602" x="0.0585938" y="0.0454102" width="98.5796" height="123.43" filterUnits="userSpaceOnUse" color-interpolation-filters="sRGB">
<feFlood flood-opacity="0" result="BackgroundImageFix"/>
<feColorMatrix in="SourceAlpha" type="matrix" values="0 0 0 0 0 0 0 0 0 0 0 0 0 0 0 0 0 0 127 0" result="hardAlpha"/>
<feOffset dy="1"/>
<feGaussianBlur stdDeviation="2"/>
<feComposite in2="hardAlpha" operator="out"/>
<feColorMatrix type="matrix" values="0 0 0 0 0 0 0 0 0 0 0 0 0 0 0 0 0 0 0.25 0"/>
<feBlend mode="normal" in2="BackgroundImageFix" result="effect1_dropShadow_5_6602"/>
<feBlend mode="normal" in="SourceGraphic" in2="effect1_dropShadow_5_6602" result="shape"/>
</filter>
</defs>
</svg>
